<svg xmlns="http://www.w3.org/2000/svg" width="388" height="291" viewBox="0 0 388 291">
    <g fill="none" fill-rule="evenodd">
        <path fill="#918BBE" d="M376 159.287c-.015 25.108-10.925 48.95-29.853 65.233-18.927 16.283-43.97 23.373-68.522 19.398H143.062A114.246 114.246 0 0 1 127.378 245c-51.121 0-94.417-33.87-109.061-80.598A116.467 116.467 0 0 1 13 129.5C13 65.71 64.21 14 127.378 14c50.875 0 93.983 33.533 108.84 79.925 15.324-13.167 34.796-20.383 54.917-20.351C338 73.574 376 111.948 376 159.287z" opacity=".601"/>
        <ellipse cx="194" cy="266.5" fill="#E94583" opacity=".45" rx="160" ry="14.5"/>
        <rect width="82" height="76" x="78" y="130" fill="#2DD8CF" rx="33"/>
        <rect width="82" height="76" x="228" y="130" fill="#2DD8CF" rx="33"/>
        <rect width="108" height="76" x="140" y="130" fill="#2DD8CF" rx="33"/>
        <path fill="#2DD8CF" fill-rule="nonzero" d="M84 179h226v54H84z"/>
        <path fill="#000" d="M155.734 212H80.393l-.38-6.547C79.596 198.102 89.151 192 101.087 192h51.277c4.004 0 7.093 2.166 6.58 4.611L155.734 212z" opacity=".1"/>
        <path fill="#00BDC9" d="M155.734 212H80.393l-.38-6.547C79.596 198.102 89.151 192 101.087 192h51.277c4.004 0 7.093 2.166 6.58 4.611L155.734 212zM234.266 213h75.341l.38-6.547c.417-7.351-9.138-13.453-21.074-13.453h-51.277c-4 0-7.093 2.166-6.58 4.611l3.21 15.389z"/>
        <path fill="#00BDC9" d="M166.908 192h55.332c3.119 0 6.11 1.17 8.316 3.252 2.205 2.082 3.444 4.906 3.444 7.85V210h-80v-5.825c.005-6.727 5.783-12.177 12.908-12.175z"/>
        <path fill="#FFF" d="M43.445 86.208c3.412-2.93 8.243-2.489 8.243-2.489s-.711 5.155-4.13 8.073c-3.42 2.918-8.246 2.49-8.246 2.49s.714-5.156 4.133-8.074zM283.142 103.193c3.276-3.192 8.32-3.187 8.32-3.187s-.283 5.147-3.569 8.328c-3.285 3.181-8.323 3.188-8.323 3.188s.286-5.148 3.572-8.329zM171.52 91.59c2.672-3.713 7.64-4.584 7.64-4.584s.615 5.117-2.068 8.821c-2.683 3.704-7.644 4.585-7.644 4.585s-.612-5.12 2.072-8.823zM345.781 154.15c-3.046-3.306-2.775-8.15-2.775-8.15s5.177.531 8.212 3.846c3.036 3.316 2.776 8.154 2.776 8.154s-5.177-.534-8.213-3.85zM122.781 48.15c-3.046-3.306-2.775-8.15-2.775-8.15s5.177.531 8.212 3.846c3.036 3.316 2.776 8.154 2.776 8.154s-5.177-.534-8.213-3.85z"/>
        <path fill="#2DD8CF" d="M164.676 200h58.075c5.66 0 10.249 4.569 10.249 10.205V224h-78v-14.362c0-5.322 4.331-9.636 9.676-9.638z"/>
        <path fill="#00B6C1" fill-rule="nonzero" d="M237.5 184c3.333-20 3.333-30 0-30s-3.333 10 0 30zM149.5 184c3.333-20 3.333-30 0-30s-3.333 10 0 30z" opacity=".2"/>
        <path fill="#00BDC9" d="M83 255v10.634c-.002 2.963-2.33 5.364-5.203 5.366h-3.594c-2.873-.002-5.2-2.403-5.203-5.366V255h14zM321 255v10.634c-.002 2.963-2.33 5.364-5.203 5.366h-3.594c-2.873-.002-5.2-2.403-5.203-5.366V255h14z"/>
        <path fill="#E9CCDB" d="M87 187.78c0-7.263-5.728-13.28-13.091-13.75-7.364-.472-13.835 4.764-14.79 11.967-.955 7.202 3.934 13.898 11.174 15.303V257h15.725v-64.134c.65-1.62.984-3.345.982-5.086z"/>
        <path fill="#00B0A7" d="M87 187.78c0-7.263-5.728-13.28-13.091-13.75-7.364-.472-13.835 4.764-14.79 11.967-.955 7.202 3.934 13.898 11.174 15.303V257h15.725v-64.134c.65-1.62.984-3.345.982-5.086z"/>
        <path fill="#24D0CC" d="M316.091 174.03c7.364-.472 13.835 4.764 14.79 11.967.955 7.202-3.934 13.898-11.174 15.303V257H303v-69.22c0-7.263 5.728-13.28 13.091-13.75z"/>
        <path fill="#2DD8CF" d="M78 247h234v11H78z"/>
        <path fill="#000" d="M80 224h230v25H80z" opacity=".1"/>
        <path fill="#00BDC9" d="M80 224h230v25H80z"/>
        <path fill="#000" d="M307 256h14v4h-14z" opacity=".1"/>
        <path fill="#2DD8CF" d="M319.094 175.03c7.366-.47 13.836 4.769 14.788 11.973.951 7.205-3.943 13.899-11.186 15.298V258H306c-.005-44.985-.005-68.058 0-69.218-.001-7.265 5.728-13.283 13.094-13.753z"/>
        <path fill="#000" d="M69 256h14v4H69z" opacity=".1"/>
        <path fill="#2DD8CF" d="M84 188.779c-.001-7.262-5.727-13.277-13.09-13.75-7.36-.472-13.832 4.761-14.79 11.961-.958 7.2 3.924 13.898 11.161 15.308V258h15.726v-64.136c.656-1.618.993-3.344.993-5.085z"/>
        <path fill="#2DD8CF" d="M85.55 200h61.188c5.668 0 10.262 4.569 10.262 10.205V224H81v-19.476c.006-2.496 2.04-4.518 4.55-4.524zM302.925 200h-62.137c-5.406 0-9.788 4.357-9.788 9.732V224h76v-19.948a4.04 4.04 0 0 0-1.193-2.865 4.087 4.087 0 0 0-2.882-1.187z"/>
        <circle cx="69" cy="189" r="6" fill="#00BDC9"/>
        <circle cx="321" cy="189" r="6" fill="#00BDC9"/>
        <path fill="#6C63FF" d="M55.208 159.837a5.857 5.857 0 0 1-2.487-1.806c-1-1.279-1.425-2.865 1.899-3.415 5.864-.963 25.243-7.895 28.107-16.641 2.864-8.746 6.837-6.788 6.837-6.788s11.577 22.621 16.803 26.374c0 0 14.38 17.768 20.773 19.471 6.392 1.704-5.667 8.078-6.605 8.093-.76 0-11.46 3.153-21.164 10.772a29.919 29.919 0 0 0-8.512 10.71c-1.048 2.202-2.606 3.89-4.319.35-3.08-6.37-12.682-30.733-20.301-36.045 0 0-8.448-10.066-11.03-11.075z"/>
        <path fill="#FFB900" d="M55.208 159.837a5.857 5.857 0 0 1-2.487-1.806c-1-1.279-1.425-2.865 1.899-3.415 5.864-.963 25.243-7.895 28.107-16.641 2.864-8.746 6.837-6.788 6.837-6.788s11.577 22.621 16.803 26.374c0 0 14.38 17.768 20.773 19.471 6.392 1.704-5.667 8.078-6.605 8.093-.76 0-11.46 3.153-21.164 10.772a29.919 29.919 0 0 0-8.512 10.71c-1.048 2.202-2.606 3.89-4.319.35-3.08-6.37-12.682-30.733-20.301-36.045 0 0-8.448-10.066-11.03-11.075z"/>
        <path fill="#FFD053" d="M59.962 158.75a5.226 5.226 0 0 1-2.308-1.607c-.92-1.134-1.295-2.585 1.82-3.13 5.521-.967 23.841-7.558 26.657-15.574 2.815-8.015 6.539-6.28 6.539-6.28s10.536 20.407 15.387 23.756c0 0 13.245 15.956 19.22 17.41 5.976 1.456-5.445 7.434-6.327 7.468-.7.023-10.812 3.024-20.057 10.125a28.67 28.67 0 0 0-8.147 9.871c-1.018 2.019-2.51 3.58-4.065.378-2.796-5.755-11.447-27.8-18.524-32.501 0 0-7.784-9.021-10.195-9.917z"/>
        <path fill="#000" d="M81.18 166.576s-2.067 1.627 7.819-1.493-7.82 1.493-7.82 1.493zM89 175.994s1.399.235 6.66-2.268c5.26-2.503-6.66 2.268-6.66 2.268z" opacity=".046"/>
        <path fill="#FD6F8D" d="M115.476 150l-.476 6.144 2.939 6.47 4.155 3.714 4.52 2.708 4.193 2.964 4.193-3.823s-6.14-4-6.69-5.358c-.548-1.359-3.308-4.11-3.308-4.11l-3.896-3.822-3.163-2.93-2.467-1.957z"/>
        <path fill="#000" d="M115.476 150l-.476 6.144 2.939 6.47 4.155 3.714 4.52 2.708 4.193 2.964 4.193-3.823s-6.14-4-6.69-5.358c-.548-1.359-3.308-4.11-3.308-4.11l-3.896-3.822-3.163-2.93-2.467-1.957z" opacity=".1"/>
        <path fill="#FFB9AB" d="M96.332 126.684c-1.505 2.929-2.777 7.233-1.324 12.086C97.694 147.736 78 135.19 78 135.19s4.244-6.29 5.486-11.723c.403-1.76.49-3.433 0-4.77-1.953-5.459 15.514 4 15.514 4a18.622 18.622 0 0 0-2.668 3.987z"/>
        <path fill="#FD6F8D" d="M95 135s7.44.277 8.454 2.405c1.012 2.127 3.128 5.46 4.047 5.923.918.463 10.672 8.51 11.503 8.879.831.368 9.198 9.156 9.198 10.083 0 .927 8.65 6.291 14.171 7.123 5.521.832 13.982 10.824 16.469 10.452 2.486-.372 7.558 1.482 7.558 1.482s5.706-.278 7.085-1.205c1.38-.927 6.534.927 5.336 3.146-1.198 2.219-5.521 1.482-6.534 2.777-1.013 1.296-3.495 2.683-5.887 2.96-2.393.277-4.248.46-6.085.923-1.836.464-1.379 1.387-4.156.927-2.778-.46-13.525-19.706-13.525-19.706l-11.96-5.456s-4.509-3.7-4.88-4.905c-.37-1.204-8.99-9.433-8.99-9.433l-11.336-8.328L95 135z"/>
        <path fill="#FFBEC5" d="M133 176.832s11.205-9.93 11.755-10.667c.273-.38 3.819-3.058 7.33-5.698a99.874 99.874 0 0 0 12.23-10.805c2.529-2.628 5.236-5.253 6.17-5.462 1.895-.433 6.707-.247 7.693 1.417.986 1.664 5.233 4.687 5.233 4.687l3.633 4.065s8.559 6.66 14.099 12.765c5.54 6.104 12.062 12.703 14.41 12.95 2.347.247 5.907 3.267 5.907 3.267s5.048 2.47 6.826 4.441c1.779 1.972 4.74 3.886 7.755 4.008 3.015.121-1.6 2.47-6.587 2.158-4.986-.312-11.076-1.85-13.234-1.478-2.158.372-8.183.43-8.183-.68s.614-3.7.614-3.7-6.647-5.535-13.405-6.705c-6.757-1.17-21.558-12.21-21.436-17.327 0 0-2.09-.186-4.494 3.514 0 0-1.721 1.481-4.615 5.61-2.893 4.13-6.34 10.049-6.34 10.049s-5.354 10.846-9.662 10.758c-4.308-.087-8.926-.585-8.926-.585l-5.726-4.068-.38-4.939-.667-7.575z"/>
        <path fill="#A9766C" d="M133 176.832s11.205-9.93 11.755-10.667c.273-.38 3.819-3.058 7.33-5.698a99.874 99.874 0 0 0 12.23-10.805c2.529-2.628 5.236-5.253 6.17-5.462 1.895-.433 6.707-.247 7.693 1.417.986 1.664 5.233 4.687 5.233 4.687l3.633 4.065s8.559 6.66 14.099 12.765c5.54 6.104 12.062 12.703 14.41 12.95 2.347.247 5.907 3.267 5.907 3.267s5.048 2.47 6.826 4.441c1.779 1.972 4.74 3.886 7.755 4.008 3.015.121-1.6 2.47-6.587 2.158-4.986-.312-11.076-1.85-13.234-1.478-2.158.372-8.183.43-8.183-.68s.614-3.7.614-3.7-6.647-5.535-13.405-6.705c-6.757-1.17-21.558-12.21-21.436-17.327 0 0-2.09-.186-4.494 3.514 0 0-1.721 1.481-4.615 5.61-2.893 4.13-6.34 10.049-6.34 10.049s-5.354 10.846-9.662 10.758c-4.308-.087-8.926-.585-8.926-.585l-5.726-4.068-.38-4.939-.667-7.575z" opacity=".403"/>
        <path fill="#FFB9AB" d="M136 176.826s11.202-9.928 11.756-10.67c.554-.74 14.464-10.98 14.464-10.98s9.356-10.543 11.267-10.976c1.911-.434 6.709-.247 7.695 1.417.986 1.664 5.23 4.688 5.23 4.688l3.632 4.07s8.556 6.66 14.096 12.766c5.54 6.106 12.067 12.705 14.41 12.952 2.345.247 5.91 3.272 5.91 3.272s5.047 2.466 6.826 4.438c1.778 1.972 4.74 3.886 7.755 4.008 3.015.122-1.6 2.47-6.587 2.158-4.987-.311-11.082-1.846-13.236-1.478-2.154.369-8.18.449-8.18-.691s.619-3.701.619-3.701-6.648-5.547-13.421-6.721c-6.774-1.174-21.533-12.2-21.423-17.315 0 0-2.094-.186-4.494 3.515 0 0-1.722 1.482-4.615 5.612-2.894 4.13-6.341 10.053-6.341 10.053s-5.355 10.836-9.667 10.757c-4.311-.08-8.923-.586-8.923-.586l-5.726-4.069-.38-4.94-.667-7.58z"/>
        <path fill="#000" d="M171.973 182.498c-.324.114-.64.25-.95.388l-2.023.893c1.762.241 3.555.285 5.331.131.987-.087 2.375-.78 1.25-1.6-.894-.642-2.698-.14-3.608.188zM163.273 184.251c1.038-.219 2.157-.434 3.126 0 .332.17.646.375.938.612l1.663 1.269a20.096 20.096 0 0 1-4.394.851 1.62 1.62 0 0 1-.594-.024 1.783 1.783 0 0 1-.678-.454c-1.299-1.143-2.176-1.808-.061-2.254zM99 122.609a18.303 18.303 0 0 0-2.731 3.924c-4.65 1.218-9.625.017-13.115-3.167.411-1.732.5-3.38 0-4.696C81.168 113.297 99 122.609 99 122.609z" opacity=".1"/>
        <circle cx="93.5" cy="113.5" r="13.5" fill="#FFB9AB"/>
        <path fill="#FFF" d="M94.71 135l-.71 1.202 8.612 9.824L106.66 149l2.34-3.298z"/>
        <path fill="#FFF" d="M108 145.033s4.188-.544 6.123 2.77a15.703 15.703 0 0 1 2.11 6.296s1.932 1.597 1.756 2.49a2.487 2.487 0 0 1-.953 1.411s-3.749-2.21-3.778-2.304c-.03-.095-2.884-3.349-2.884-3.349L108 149.771v-4.738z"/>
        <path fill="#FD6F8D" d="M81.948 133.155s-6.79.547-7.48 5.231c-.687 4.685-.923 7.372 1.484 10.617 2.407 3.245 7.346 4.586 7.346 4.586s7.468 5.812 7.53 9.362c.06 3.55 6.357 11.498 6.357 11.498s11.99 8.812 11.126 11.638c-.863 2.827-1.114 10.828 2.03 11.563 3.145.735 8.275.124 9.012 1.04.738.916 12.963-.49 12.963-.49s6.791-1.526 11.297-.18c2.804.772 5.792.55 8.45-.626 0 0 5.247-.49 5.555-2.567.308-2.076 2.661-2.02.433-2.385-2.228-.366-3.643.795-5.247.24-1.605-.553-2.962-2.385-6.666-2.32-3.704.063-4.563.12-4.943.06-.38-.06 2.342-2.141.863-5.507-1.48-3.365-4.32-5.996-4.183-7.891.137-1.896-5.555-8.322-5.555-8.322s-2.715-3.912-6.233-5.197c-3.517-1.285-10.122-9.177-10.122-9.177s-5.658-8.725-8.723-9.196c-3.064-.47-13.13-9.403-13.13-9.403s-8.536-3.497-12.164-2.574z"/>
        <path fill="#000" d="M173 163c.827-.27 5.033-1.06 3.763-2.664-1.158-1.472-2.866 2.352-3.763 2.664z" opacity=".1"/>
        <path fill="#CBE3FF" d="M166 122l-1.48 33-7.52-1.374 1.951-27.195c.045-.529.391-.997.91-1.23L166 122z"/>
        <path fill="#C8BFCA" d="M166.027 122L164 155c.464 0 .85-.404.885-.925l2.111-30.476c.049-.723-.354-1.387-.97-1.599z"/>
        <path fill="#F1F1F2" d="M135.64 168.464a1.494 1.494 0 0 0-.245 2.236l3.052 2.3L165 153.459l-7.464-.456c-.327-.02-.65.076-.911.271l-20.986 15.19z"/>
        <path fill="#7E7A98" d="M156.784 155L143 164.872l1.92 2.128L161 155.294z"/>
        <path fill="#C8BFCA" d="M139 172.388L164.8 153a2.057 2.057 0 0 1-.619 2.53l-22.661 17.086a1.872 1.872 0 0 1-2.52-.228z"/>
        <path fill="#FFB9AB" d="M133 167.742s9.257-18.082 14.723-11.166c5.466 6.916-8.385 14.424-8.385 14.424L133 167.742z"/>
        <path fill="#000" d="M85.08 137.67c-3.703.955-6.637 3.749-7.746 7.376-.596 2.02-.554 4.236 1.466 5.718 4.624 3.385 11.155 5.77 14.177 11.326a38.974 38.974 0 0 1 3.873 11.57l7.829 11.447s1.188 3.664 9.112.797c7.924-2.866 12.256-4.337 12.256-4.337s6.143-3.265 8.888-4.457c.387-.195.798-.34 1.223-.429.922 0 7.529-5.601 7.832-6.372.304-.771-6.678-3.976-9.469-3.28 0 0-.398 1.655-5.638 1.41-5.24-.244-7.214 1.956-7.214 1.956s-2.59-.917-4.252-.827c-1.663.09-4.682-1.505-6.933-1.313 0 0 1.139-2.257-.338-4.138-1.477-1.88-2.836-1.711-3.451-3.938-.353-1.271-1.52-5.315-2.464-8.565a23.545 23.545 0 0 0-7.078-11.206c-2.21-1.93-4.837-3.498-7.472-3.404a20.88 20.88 0 0 0-4.601.666z" opacity=".1"/>
        <path fill="#000" d="M85.088 136.65c-3.704.956-6.641 3.752-7.756 7.382-.592 2.02-.554 4.233 1.47 5.716 4.62 3.387 11.154 5.772 14.172 11.33a38.979 38.979 0 0 1 3.884 11.575l7.828 11.455s1.184 3.665 9.111.794c7.927-2.872 12.255-4.335 12.255-4.335s6.143-3.27 8.884-4.46c.386-.196.798-.34 1.223-.428.926 0 7.532-5.603 7.832-6.375.3-.771-6.675-3.977-9.465-3.281 0 0-.399 1.656-5.638 1.411-5.239-.245-7.213 1.953-7.213 1.953s-2.59-.914-4.252-.824c-1.663.09-4.685-1.505-6.932-1.313 0 0 1.139-2.258-.342-4.14-1.48-1.881-2.832-1.708-3.451-3.94a1226.41 1226.41 0 0 0-2.46-8.568 23.573 23.573 0 0 0-7.077-11.21c-2.213-1.93-4.836-3.5-7.471-3.386a20.737 20.737 0 0 0-4.602.643z" opacity=".1"/>
        <path fill="#FD6F8D" d="M85.08 136.65c-3.703.954-6.637 3.75-7.746 7.379-.596 2.02-.554 4.237 1.466 5.72 4.624 3.387 11.155 5.773 14.177 11.331a39.003 39.003 0 0 1 3.873 11.576l7.829 11.451s1.188 3.666 9.112.795c7.924-2.872 12.256-4.336 12.256-4.336s6.143-3.27 8.888-4.46a4.839 4.839 0 0 1 1.223-.428c.922 0 7.529-5.604 7.832-6.375.304-.772-6.678-3.978-9.469-3.282 0 0-.398 1.656-5.638 1.412-5.24-.245-7.214 1.953-7.214 1.953s-2.59-.915-4.252-.824c-1.663.09-4.682-1.506-6.933-1.314 0 0 1.139-2.258-.338-4.14-1.477-1.881-2.836-1.708-3.451-3.936-.353-1.272-1.52-5.317-2.464-8.572a23.545 23.545 0 0 0-7.078-11.207c-2.21-1.935-4.837-3.5-7.472-3.387a20.873 20.873 0 0 0-4.601.643z"/>
        <path fill="#393C88" d="M108.202 108.348c1.346-.477 2.572-1.577 2.78-2.996a4.426 4.426 0 0 0-.637-2.714c-1.68-3.053-5.08-4.679-8.345-5.82-3.266-1.141-6.691-1.985-10.136-1.79-3.444.195-6.941 1.527-9.175 4.198a7.526 7.526 0 0 1-1.377 1.466c-.793.545-1.806.637-2.766.599-3.163-.115-6.467-1.374-9.388-.141-3.505 1.484-4.734 5.808-5.189 9.606-.467 3.912-.58 7.889-1.608 11.69-1.028 3.801-3.141 7.518-6.578 9.4-1.005.553-2.101.935-3.034 1.588-.933.652-1.749 1.66-1.749 2.808 0 1.569 1.396 2.725 2.124 4.11.527 1.008.736 2.222 1.517 3.031 1.594 1.615 4.412.699 6.449 1.687 1.817.878 2.598 3.027 4.025 4.458 1.672 1.679 4.146 2.27 6.509 2.43 1.29.092 2.632.066 3.823-.442 2.375-1.011 3.634-3.736 3.775-6.324.14-2.587-.604-5.133-1.138-7.667-.175-.836-.327-1.73-.02-2.527a3.849 3.849 0 0 1 1.275-1.526c2.8-2.225 6.794-3.244 8.402-6.454 1.081-2.156.759-4.717 1.02-7.118.1-.878.315-1.805.956-2.4.793-.733 1.973-.764 3.035-.86a15.283 15.283 0 0 0 8.539-3.732c1.16-1.015 1.858-2.29 2.871-3.4 1.013-1.11 2.69-.68 4.04-1.16z"/>
    </g>
</svg>
