<svg xmlns="http://www.w3.org/2000/svg" xmlns:xlink="http://www.w3.org/1999/xlink" width="18" height="20" viewBox="0 0 18 20">
    <defs>
        <path id="a" d="M12 14h-2v2h2v-2zm4 0h-2v2h2v-2zm4 0h-2v2h2v-2zm2-7h-1V5h-2v2h-8V5H9v2H8c-1.11 0-1.99.9-1.99 2L6 23a2 2 0 0 0 2 2h14c1.1 0 2-.9 2-2V9c0-1.1-.9-2-2-2zm0 16H8V12h14v11z"/>
    </defs>
    <g fill="none" fill-rule="evenodd" transform="translate(-6 -5)">
        <path d="M3 3h24v24H3z"/>
        <mask id="b" fill="#fff">
            <use xlink:href="#a"/>
        </mask>
        <g fill="#000019" fill-opacity=".22" mask="url(#b)">
            <path d="M0 0h30v30H0z"/>
        </g>
    </g>
</svg>
