<svg xmlns="http://www.w3.org/2000/svg" xmlns:xlink="http://www.w3.org/1999/xlink" width="19" height="18" viewBox="0 0 19 18">
    <defs>
        <path id="a" d="M24 16H7c-.55 0-1 .45-1 1v6c0 .55.45 1 1 1h17c.55 0 1-.45 1-1v-6c0-.55-.45-1-1-1zm0-10H7c-.55 0-1 .45-1 1v6c0 .55.45 1 1 1h17c.55 0 1-.45 1-1V7c0-.55-.45-1-1-1z"/>
    </defs>
    <g fill="none" fill-rule="evenodd" transform="translate(-6 -6)">
        <path d="M4 3h24v24H4z"/>
        <mask id="b" fill="#fff">
            <use xlink:href="#a"/>
        </mask>
        <g fill="#000019" fill-opacity=".22" mask="url(#b)">
            <path d="M.5 0h30v30H.5z"/>
        </g>
    </g>
</svg>
