<?xml version="1.0" standalone="no"?><!DOCTYPE svg PUBLIC "-//W3C//DTD SVG 1.1//EN" "http://www.w3.org/Graphics/SVG/1.1/DTD/svg11.dtd"><svg class="icon" height="512" viewBox="0 0 1024 1024" version="1.1" xmlns="http://www.w3.org/2000/svg"><path d="M503.995519 1024.728458c-134.66101 0-261.264716-52.438881-356.487397-147.663574C52.287454 781.844215-0.154445 655.243527-0.154445 520.581511c0-134.662016 52.440893-261.265722 147.662568-356.487397C242.728792 68.873446 369.330485 16.432553 503.995519 16.432553c134.662016 0 261.262703 52.440893 356.484378 147.661562 95.221675 95.222681 147.663574 221.824375 147.663574 356.487397 0 134.66101-52.441899 261.262703-147.663574 356.483372C765.258223 972.28857 638.655523 1024.728458 503.995519 1024.728458zM503.995519 81.407142c-59.344135 0-116.850022 11.594951-170.918877 34.464896-52.286951 22.116333-99.263407 53.798199-139.6274 94.162192-40.372042 40.372042-72.052902 87.351516-94.161186 139.63243-22.874975 54.075898-34.474957 111.57776-34.474957 170.913846 0 59.341117 11.598976 116.841972 34.471939 170.906803 22.114321 52.288964 53.796186 99.27045 94.164204 139.639474 40.374055 40.366005 87.353529 72.048877 139.634443 94.160179 54.06483 22.867932 111.567698 34.466908 170.911834 34.466908 59.338098 0 116.83996-11.598976 170.916864-34.466908 52.272865-22.111302 99.252339-53.794174 139.624381-94.160179 40.376067-40.382104 72.057933-87.359565 94.160179-139.63243 22.873969-54.07791 34.472945-111.578766 34.472945-170.913846 0-59.349166-11.59797-116.852034-34.470932-170.907809-22.112308-52.286951-53.790149-99.267431-94.162192-139.638467-40.366005-40.374055-87.343467-72.054914-139.624381-94.162192C620.83548 93.002093 563.332611 81.407142 503.995519 81.407142zM826.082414 772.581535l-60.487129 0-0.928683-22.894092c-4.068898-100.656934-132.833829-194.534383-255.214695-194.534383-122.36678 0-229.189442 93.877449-233.260353 194.534383l-0.929689 22.894092-63.170549 0 0.885418-24.710205c0.962892-26.690322 6.697986-52.887627 17.04329-77.872513 10.966103-26.485066 26.898596-51.180179 47.356783-73.401152 20.099995-21.831591 44.063632-40.722185 71.221816-56.149587 17.333063-9.846251 35.701462-18.123903 54.891891-24.751458-18.218481-13.114248-33.959805-29.416001-46.424075-48.222078-19.791105-29.857703-30.252117-64.592249-30.252117-100.445641 0-49.260432 19.359463-95.567793 54.51257-130.387862 35.111854-34.779823 81.788475-53.93403 131.429234-53.93403 49.641765 0 96.319392 19.154207 131.433259 53.93403 35.151094 34.821075 54.508545 81.12743 54.508545 130.387862 0 35.053497-10.06358 69.120961-29.104092 98.518851-11.786121 18.199364-26.679254 34.16003-43.936856 47.229001 51.444798 16.238365 97.509675 44.204494 132.175802 80.663592 21.361715 22.473519 38.014617 47.573107 49.496878 74.605522 10.869512 25.587574 16.879287 52.441899 17.864314 79.819426L826.082414 772.581535zM511.432024 524.391827l3.059723 1.403589 3.004384-1.466977C515.487843 524.38579 513.451381 524.40692 511.432024 524.391827zM512.749084 244.594709c-68.227494 0-123.735153 54.92107-123.735153 122.429161 0 67.519159 55.506653 122.451297 123.735153 122.451297 68.229506 0 123.739177-54.932137 123.739177-122.451297C636.488261 299.516785 580.97859 244.594709 512.749084 244.594709z" /></svg>