<svg xmlns="http://www.w3.org/2000/svg" width="388" height="291" viewBox="0 0 388 291">
    <g fill="none" fill-rule="evenodd">
        <path fill="#918BBE" d="M335 131.581c-.012 19.457-8.487 37.931-23.191 50.549-14.704 12.618-34.16 18.111-53.232 15.032H154.04a88.974 88.974 0 0 1-12.184.838c-39.715 0-73.35-26.245-84.726-62.454A90.04 90.04 0 0 1 53 108.5C53 59.07 92.783 19 141.856 19c39.522 0 73.012 25.985 84.553 61.933 11.905-10.202 27.032-15.794 42.663-15.77C305.478 65.163 335 94.9 335 131.581z" opacity=".3"/>
        <path fill="#59519C" d="M114.678 240.584c-2.535-.145-5.183-.303-7.532.546s-4.216 3.065-3.401 5.047c1.819 4.419 10.947.797 15.393 3.65 1.587 1.019 2.274 2.717 3.54 4.005 2.048 2.092 5.425 2.94 8.663 3.335 19.45 2.37 40.965-7.48 58.296.011 5.612 2.427 10.153 6.52 16.246 8.015 8.072 1.983 16.64-1.036 24.776-3.11a112.491 112.491 0 0 1 31.008-3.398c7.722.24 17.96-.08 20.103-6.265 1.38-3.976-2.198-8.135-6.743-9.745-4.544-1.61-9.747-1.278-14.704-.841-9.567.875-19.116 2.13-28.722 2.266-18.574.258-36.503-6.793-54.568-6.11-21.037.825-41.114 3.796-62.355 2.594z"/>
        <path fill="#CF9CAC" d="M229 110h9v9h-9zM218.599 214.978c-.767 3.731-1.904 6.632-4.009 8.341-2.105 1.71-5.061 6.293-5.061 6.293-.052 6.096-1.706 7.949-1.706 7.949l-1.705.439h-4.21s-.752-2.049-.902-3.266c-.051-.407.246-1.09.661-1.82a22.367 22.367 0 0 0 2.752-8.673l.196-1.8c-.355-11.172 4.21-14.798 6.126-15.831.537-.292.893-.821.953-1.417l.34-3.193 11.325.541s-.24.972.19 3.22c.087.465.204.983.36 1.56.903 3.363-5.262 7.41-5.31 7.657zM237.798 207.168a28.11 28.11 0 0 1-1.611 4.807 12.08 12.08 0 0 0-.967 4.374v.15a37.252 37.252 0 0 1-2.803 12.986c-1.672 4.08-3.888 9.387-4.553 10.504-1.107 1.866-.454 5.011-.454 5.011l-6.409-.442.112-10.513c-.668-7.507 1.793-14.442 3.126-17.576.539-1.253.846-2.589.907-3.946l.302-6.974.094-2.063s11.331-1.57 12.287.935c.263.663.2 1.65-.03 2.747z"/>
        <path fill="#000" d="M224 206l-12-.604.344-3.396 11.464.576s-.252 1.03.192 3.424zM237.808 207L226 205.447l.09-1.98s10.83-1.508 11.744.896c.254.637.193 1.585-.026 2.637z" opacity=".1"/>
        <path fill="#FFF" d="M244.154 185.56L239.37 207l-14.156-1.944v-7.38l-1.225 7.583-16.989-.85.879-16.602a62.746 62.746 0 0 0 1.904-10.12c.33-3.752 2.07-13.004 2.911-17.35.293-1.434.457-2.337.457-2.337s29.099 6.18 31.003 8.424c.325.383.539 1.197.67 2.276.64 5.241-.67 16.86-.67 16.86z"/>
        <path fill="#000" d="M210 187s11.256-6.112 14-4.82L210 187zM216 167s9.701 7.087 10 9l-10-9zM214 192.025s6.823-.395 9 1.975l-9-1.975zM225.95 184s3.034 10.866 1.72 13.838c-1.315 2.972-2.67-.695-2.67-.695l.95-13.143z" opacity=".05"/>
        <path fill="#363636" d="M221.82 241s-3.356.489-2.746 8.295c.61 7.805 1.526 9.175 2.747 9.272 1.22.097 7.171 1.514 6.866-1.367-.305-2.881-.61-9.27-.204-10.248.406-.978 1.107-3.551-.43-4.187l-.333 1.505s-3.256-2.88-5.188-.781a7.844 7.844 0 0 0-.4-1.502c-.192-.457-.613-.694-.311-.987z"/>
        <path fill="#CF9CAC" d="M282 143.88s-.758.416-1.871.936c-1.718.803-4.279 1.86-6.174 2.017-3.123.26-4.1.555-7.672-1.955-2.74-1.925-7.329-4.61-9.326-5.755l-.87-.505-.087-.05v-.036l1.658-4.47 5.866-3.062 1.457 1.225 4.335 3.647s.677 1.069 1.769.995c1.092-.074 6.92.405 6.92.405l1.1.177 2.32.378.575 6.053z"/>
        <path fill="#000" d="M282 143.11s-.745.396-1.838.89c-1.156-.562-2.593-1.615-2.04-3.348.5-1.56.636-2.776 1.046-3.652l2.28.36.552 5.75z" opacity=".1"/>
        <path fill="#CF9CAC" d="M281.962 135.196s6.496-1.886 6.012 6.035c-.484 7.92-5.49 3.585-5.49 3.585s-4.256-1.132-3.36-4.113c.896-2.981.636-4.789 2.838-5.507zM214 110.107l-6.623 2.848-.102.045-.073-.036-.412-.212c-1.713-.874-7.599-3.863-11.302-5.638-4.384-2.094-3.703-4.189-3.703-4.189l-.631-21.942-1.122-3.94s-.792-13.358 5.553-16.706c6.345-3.348 2.241 19.348 2.241 19.348l.491 4.715c.317 3.017.9 5.999 1.74 8.908.273.957.446 1.941.514 2.936.195 3.19 1.657 2.977 1.657 2.977a20.026 20.026 0 0 1 6.587 2.292c.762.412 1.491.884 2.18 1.412l3.005 7.182zM237.89 121l-5.89-.592s1.736-2.51 2.5-4.953a8.22 8.22 0 0 0 .26-1.021c.176-.968.13-1.865-.324-2.513-1.723-2.466 10.255-5.921 10.255-5.921a27.648 27.648 0 0 0-.13 4.109c.033.954.135 1.904.304 2.845.362 1.915 1.084 3.718 2.46 4.642 3.762 2.516-9.435 3.404-9.435 3.404z"/>
        <path fill="#000" d="M237.889 121l-5.889-.589s1.736-2.496 2.5-4.924c.679.933.913.913 1.866 1.098 0 0 5.944.85 8.501-3.585.363 1.904 1.084 3.697 2.46 4.615 3.755 2.502-9.438 3.385-9.438 3.385z" opacity=".1"/>
        <path fill="#2DD8CF" d="M236.198 117.146s5.839.859 8.307-3.648c0 0 4.122 3.363 6.587 3.651 2.465.288 13.908 14.598 13.908 14.598s-9.173 2.94-8.582 7.643l-4.34-4.998s-2.17-.1-4.043 5.88c0 0-2.27 3.427-1.974 14.303.296 10.876-.69 13.425-.69 13.425s-28.804-2.449-31.367-6.467c-2.562-4.018-2.959-2.058-2.959-2.058s-.396-7.642 2.267-13.815c2.663-6.173 2.071-23.908 2.071-23.908s.296-8.721-8.383-7.936c0 0 3.649-8.428 1.974-11.661-1.675-3.234 4.992 1.346 8.549 1.387 2.183.017 4.335.52 6.297 1.47 1.068.52 2.054 1.176 2.613 1.958 1.675 2.351 4.439 1.275 4.439 1.275a44.34 44.34 0 0 0 2.574 6.27c.116.215.231.427.35.63.171.293.349.587.526.828.71 1.009.912.982 1.876 1.173z"/>
        <path fill="#000" d="M243.866 110.357c-.311.474-.657.92-1.035 1.334-1.92 2.117-4.553 3.31-7.304 3.309-.352 0-.704-.019-1.055-.057.17-1.026.126-1.977-.31-2.665C232.51 109.663 244 106 244 106a32.39 32.39 0 0 0-.134 4.357z" opacity=".1"/>
        <path fill="#CF9CAC" d="M246 103.5c0 5.799-4.701 10.5-10.5 10.5s-10.5-4.701-10.5-10.5S229.701 93 235.5 93a10.461 10.461 0 0 1 10.5 10.5z"/>
        <path fill="#000" d="M251 127.012l.188 6.988s2.724-2.512 2.81-4.9c.086-2.386-2.998-2.088-2.998-2.088zM226 135s8.284 10.815 13.104 11.912c4.82 1.098-11.297-8.405-13.104-11.912zM235 135s4.658 5.335 8 6l-8-6zM219 148s8.273 8.485 13 9l-13-9zM246 103.596a10.567 10.567 0 0 1-3.02 7.404l-1.16-.723a3.21 3.21 0 0 1-1.13-.984c-.383-.642-.271-1.447-.241-2.195.063-1.583-.371-3.296-1.607-4.286-2.002-1.607-5.212-.717-7.248-2.294a7.156 7.156 0 0 1-1.284-1.432l-1.908-2.564c-.115-.151-.254-.303-.402-.481a10.553 10.553 0 0 1 11.504-2.215 10.595 10.595 0 0 1 6.478 9.782l.018-.012z" opacity=".1"/>
        <path fill="#363636" d="M229.045 90.732c.917-.706 2.037-1.078 3.068-1.598 1.032-.52 1.944-1.181 2.975-1.624 1.032-.443 2.225-.703 3.295-.334 2.295.795 3.162 4.026 5.522 4.593.398.095.808.104 1.21.166a5.511 5.511 0 0 1 3.708 2.614 8.755 8.755 0 0 1 1.172 4.493 7.25 7.25 0 0 1-.372 2.578c-.698 1.93-2.448 3.25-3.629 4.918a9.403 9.403 0 0 0-1.697 5.462l-2.86-1.793a3.09 3.09 0 0 1-1.096-.96c-.373-.626-.264-1.412-.235-2.141.062-1.545-.36-3.217-1.556-4.183-1.946-1.569-5.062-.7-7.034-2.24a6.97 6.97 0 0 1-1.246-1.396l-1.852-2.502c-.402-.544-1.173-1.22-1.349-1.882-.39-1.424.944-3.37 1.976-4.17z"/>
        <path fill="#000" d="M242.343 109.885a3.178 3.178 0 0 1-1.139-.96c-.387-.627-.274-1.413-.244-2.143.064-1.545-.374-3.217-1.62-4.183-2.02-1.569-5.258-.7-7.312-2.24a7.069 7.069 0 0 1-1.295-1.397l-1.925-2.502c-.42-.544-1.218-1.22-1.401-1.882-.332-1.14.509-2.627 1.407-3.578-1.008.904-2.114 2.62-1.74 3.9.196.662.985 1.338 1.402 1.882l1.925 2.502c.365.52.8.99 1.295 1.398 2.044 1.539 5.283.67 7.312 2.24 1.243.965 1.681 2.637 1.617 4.183-.03.73-.143 1.515.244 2.141.296.404.686.733 1.14.96l2.973 1.794c0-.171 0-.343.018-.511l-2.657-1.604z" opacity=".1"/>
        <path fill="#363636" d="M202.301 233s-2.798.582-2.223 8.354c.574 7.772 1.436 9.12 2.585 9.216 1.15.096 6.752 1.504 6.464-1.36-.287-2.863-.574-9.212-.192-10.184.382-.972 1.899-3.582.451-4.213l-1.17 1.548s-3.065-2.863-4.883-.777c0 0-1.701-1.906-1.032-2.584z"/>
        <path fill="#000" d="M204 238c.675.208 1.305.462 1.977.67.662.226 1.4.34 2.146.33.317-.004.624-.074.877-.198M223 246c.352.229.625.52 1.022.71.563.266 1.283.282 1.97.288.115.007.23-.003.338-.03a.778.778 0 0 0 .301-.199l.369-.336" opacity=".1"/>
        <path fill="#FFB9AB" d="M174.158 113.995s-1.369-12.606 3.954-9.504c5.323 3.103 1.658 8.617 1.658 8.617L178.52 117l-4.362-3.005zM182 73.38l3.018-2.842s5.787-15.965 11.521-11.865c5.735 4.101-7.268 14.47-7.268 14.47L185.824 77 182 73.38z"/>
        <path fill="#E1A400" d="M139.151 138.577l-.151 3.345s2.778 4.724 3.938 5.07c1.16.345 1.06-9.992 1.06-9.992l-4.847 1.577z"/>
        <path fill="#FFC1C7" d="M144 135l.202 12H158l-1.039-6.991z"/>
        <path fill="#575988" d="M147.503 166l.633 3.928 7.916 17.782s3.593 5.599.68 10.314c-2.915 4.715-5.924 12.082-6.411 16.55-.487 4.467-4.321 8.84-4.321 8.84l8.354 3.586s.582-7.022 2.913-10.314 9.808-17.778 9.808-17.778 2.38-2.163 1.847-8.596c-.533-6.433-.486-10.954-.486-10.954l-.825-10.264L147.503 166z"/>
        <path fill="#D82D9D" d="M147.503 166l.633 3.928 7.916 17.782s3.593 5.599.68 10.314c-2.915 4.715-5.924 12.082-6.411 16.55-.487 4.467-4.321 8.84-4.321 8.84l8.354 3.586s.582-7.022 2.913-10.314 9.808-17.778 9.808-17.778 2.38-2.163 1.847-8.596c-.533-6.433-.486-10.954-.486-10.954l-.825-10.264L147.503 166z" opacity=".702"/>
        <path fill="#363636" d="M145.675 223s-9.072 2.736-6.064 7.235c3.008 4.499 12.769 13.05 16.712 12.758 3.942-.294 2.366-3.18 2.366-3.18l-3.304-3.226s-.592-6.842-.343-8.845c.248-2.003-2.81-2.932-3.206-1.76-.397 1.174-6.161-2.982-6.161-2.982z"/>
        <path fill="#D82D9D" d="M151.777 142l-7.211.799a2.589 2.589 0 0 0-2.302 2.64c.077 2.887.127 7.478-.276 8.316-.593 1.238-2.42 10.05 5.488 16.037l10.73 3.415L141 174.446l.546 9.554 2.67-1.485L176.847 184s9.247-.941 2.967-10.989c-6.28-10.047-19.627-19.898-19.627-19.898l-.148-7.822-.99-2.275-7.272-1.016z"/>
        <path fill="#000" d="M161 173c2.232-1.333 4.768-1.333 7 0h-7z" opacity=".1"/>
        <path fill="#363636" d="M141.42 174.566s-10.37-1.564-10.419.506c-.049 2.07 1.447 22.226 6.416 20.862 4.97-1.364 2.845-8.032 2.845-8.032l3.716-3.737s.385-2.07-2.075-1.87l-.483-7.729z"/>
        <path fill="#E1A400" d="M159.05 118.065l4.148 4.824s1.808 2.288 3.955-1.194c2.147-3.481 6.15-9.695 6.15-9.695s4.445 3.977 5.616 3.183c1.172-.793-10.788 16.56-10.788 16.56s-3.808 5.716-9.473-1.044l-1.658-.797 2.05-11.837z"/>
        <ellipse cx="147" cy="90.5" fill="#FFB9AB" rx="9" ry="8.5"/>
        <path fill="#000" d="M146.295 95.531s-7.487 3.55-6.601 9.761c.886 6.212 1.033 14.05 1.033 14.05s3.4 5.03-1.107 14.643c0 0-2.88 4.88-.96 8.43 0 0 2.13-5.62 7.635-1.479S160.664 147 160.664 147s-4.578-20.114-1.773-22.924c0 0 4.874-7.247.443-11.832-4.43-4.585-2.215-8.874-2.215-8.874l14.227-7.64s3.001.047 7.039-6.263A108.643 108.643 0 0 1 187 77.931s-3.054-4.585-5.907-4.931c0 0-1.134 1.183-1.92 4.39-.42 1.7-3.27 4.543-5.848 6.836-1.83 1.626-3.597 3.315-5.36 5.028-1.306 1.257-4.212 3.056-10.55 4.073-10.432 1.666-11.12 2.204-11.12 2.204z" opacity=".1"/>
        <path fill="#FFD053" d="M146.295 95.531s-7.487 3.55-6.601 9.761c.886 6.212 1.033 14.05 1.033 14.05s3.4 5.03-1.107 14.643c0 0-2.88 4.88-.96 8.43 0 0 2.13-5.62 7.635-1.479S160.664 147 160.664 147s-4.578-20.114-1.773-22.924c0 0 4.874-7.247.443-11.832-4.43-4.585-2.215-8.874-2.215-8.874l14.227-7.64s3.001.047 7.039-6.263A108.643 108.643 0 0 1 187 77.931s-3.054-4.585-5.907-4.931c0 0-1.134 1.183-1.92 4.39-.42 1.7-3.27 4.543-5.848 6.836-1.83 1.626-3.597 3.315-5.36 5.028-1.306 1.257-4.212 3.056-10.55 4.073-10.432 1.666-11.12 2.204-11.12 2.204z"/>
        <path fill="#000" d="M153 132s5.851 8.53 6 10c.003 0-.89-9.168-6-10zM145 104s4.09 4.028 10 .652c-3.301.917-6.918.681-10-.652z" opacity=".1"/>
        <path fill="#D95D5D" d="M147.98 81.823a2.631 2.631 0 0 0-.64-1.189c-1.341-1.685-2.798-3.414-4.795-4.214a6.623 6.623 0 0 0-7.564 2.158c-.718.969-1.145 2.122-1.765 3.159-1.146 1.92-2.917 3.4-4.822 4.57-1.149.705-2.36 1.314-3.442 2.113-3.938 2.904-5.757 8.27-4.766 13.076.436 2.104 1.36 4.178 1.11 6.315-.193 1.658-1.074 3.144-1.967 4.553-.893 1.408-1.846 2.835-2.202 4.457-.356 1.623.018 3.546 1.362 4.53.495.362 1.092.594 1.516 1.027.281.338.516.712.698 1.112a10.913 10.913 0 0 0 6.774 5.35c1.276.335 2.988.213 3.454-1.023.053-.219.134-.43.24-.627.421-.595 1.35-.262 2.003.08a12.386 12.386 0 0 0 4.786 1.376 3.985 3.985 0 0 0 1.962-.235c.526-.268.98-.66 1.32-1.144 1.56-2.036 2.009-4.695 2.276-7.248.175-1.661.297-3.352-.02-4.993-.505-2.633-2.105-5.093-1.867-7.762.252-2.853 2.563-5.186 2.917-8.024a6.126 6.126 0 0 0-1.042-4.217 6.03 6.03 0 0 1-.792-1.242c-.207-.46-.113-1 .237-1.364.188-.132.397-.233.617-.297 1.908-.734 2.926-2.648 3.063-4.606.053-.743 0-1.427.204-2.152.327-1.12 1.315-2.344 1.146-3.54z"/>
        <path fill="#000" d="M137 187c1.011.87 2.565 1.209 4 .871" opacity=".1"/>
        <path fill="#363636" d="M156 237c-.56.829-1.292 1.166-2 .923" opacity=".1"/>
        <ellipse cx="298.5" cy="260" fill="#2F8BE4" rx="10.5" ry="2"/>
        <ellipse cx="309.5" cy="241.5" fill="#2F8BE4" rx="15.5" ry="2.5"/>
        <ellipse cx="165" cy="268" fill="#59519C" opacity=".504" rx="27" ry="5"/>
        <path fill="#2DD8CF" d="M316.459 237.994c.713-.484 1.234-1.137 1.493-1.873.19-.744-.19-1.633-1.042-1.905-.957-.304-1.98.246-2.753.805-.774.56-1.664 1.19-2.68 1.074 1.062-.8 1.54-2.004 1.26-3.173a1.238 1.238 0 0 0-.35-.647c-.532-.472-1.493-.269-2.13.104-2.022 1.183-2.586 3.467-2.598 5.525-.202-.741-.03-1.514-.035-2.265-.004-.75-.256-1.617-1.026-2.015a3.652 3.652 0 0 0-1.556-.324c-.91-.025-1.92.049-2.543.602-.777.69-.571 1.84.101 2.588.673.747 1.692 1.23 2.629 1.753a5.523 5.523 0 0 1 1.882 1.492c.056.085.103.173.14.265h5.697a16.278 16.278 0 0 0 3.51-2.006zM305.462 255.982c.713-.484 1.232-1.135 1.49-1.869a1.591 1.591 0 0 0-1.042-1.902c-.957-.303-1.98.246-2.753.804-.774.559-1.665 1.188-2.68 1.072 1.062-.798 1.54-2 1.26-3.167a1.202 1.202 0 0 0-.35-.646c-.528-.47-1.493-.268-2.127.104-2.021 1.181-2.585 3.46-2.597 5.514-.206-.74-.035-1.511-.039-2.26-.004-.749-.256-1.614-1.026-2.011a3.636 3.636 0 0 0-1.556-.307c-.91-.026-1.92.048-2.543.6-.777.688-.571 1.837.101 2.583.673.746 1.692 1.227 2.633 1.75a5.518 5.518 0 0 1 1.878 1.488c.056.085.103.174.14.265h5.696a16.369 16.369 0 0 0 3.515-2.018z"/>
        <path stroke="#535461" stroke-linecap="round" stroke-width="2" d="M91.171 229s-8.057-26.312 1.514-45.676c4.076-8.1 5.308-17.255 3.51-26.086A67.817 67.817 0 0 0 92.358 145"/>
        <path fill="#F5A623" d="M98.997 133.151c0 3.297-5.5 12.849-5.5 12.849s-5.494-9.552-5.494-12.849c-.062-2.175.972-4.213 2.698-5.32a5.131 5.131 0 0 1 5.598 0c1.726 1.107 2.76 3.145 2.698 5.32zM110.118 150.285C108.308 153.11 98 158 98 158s.188-11.533 1.999-14.352c1.85-2.726 5.507-3.464 8.248-1.666 2.741 1.798 3.571 5.479 1.871 8.303zM107.925 179.262c-2.893 1.361-13.925.423-13.925.423s5.746-8.811 8.638-10.167c2.875-1.255 6.3-.155 7.731 2.483 1.431 2.637.348 5.855-2.444 7.261zM103.978 203.276C101.502 205.166 91 206 91 206s3.868-10.134 6.323-12.03c2.475-1.707 5.81-1.106 7.58 1.366 1.772 2.472 1.355 5.946-.946 7.896l.021.044zM83.704 160.27C86.057 162.591 97 165 97 165s-2.678-11.076-5.043-13.399a5.857 5.857 0 0 0-8.28.232c-2.242 2.351-2.235 6.094.015 8.436h.012zM89.451 188.77s-1.238-10.561-3.233-13.067c-2.017-2.434-5.61-2.947-8.083-1.154-2.474 1.794-2.92 5.234-1.003 7.741 1.995 2.506 12.32 6.48 12.32 6.48zM77.022 213.275C79.498 215.172 90 216 90 216s-3.868-10.138-6.323-12.03c-2.475-1.707-5.81-1.106-7.58 1.367-1.772 2.473-1.355 5.949.946 7.9l-.021.038z"/>
        <path fill="#363636" d="M78 227.422s7.131-1.513 9.036-3.528c1.905-2.015 10.458-5.538 11.408-3.02.95 2.518 12.838 11.08 4.756 12.593-8.082 1.513-19.019 2.016-21.395 1.01-2.375-1.005-3.805-7.055-3.805-7.055z"/>
        <path fill="#FFF" d="M278.7 98.175a1.9 1.9 0 0 1-.335-1.05c0-2.278 4.59-4.125 10.253-4.125 5.662 0 10.253 1.847 10.253 4.125a1.97 1.97 0 0 1-.425 1.172c6.305.71 10.554 2.046 10.554 3.578 0 2.278-9.403 4.125-21 4.125s-21-1.847-21-4.125c0-1.615 4.768-3.025 11.7-3.7zM238.473 42.38a1.68 1.68 0 0 1-.272-.89c0-1.929 3.716-3.49 8.298-3.49s8.3 1.556 8.3 3.49c-.008.361-.127.709-.34.99 5.102.605 8.541 1.733 8.541 3.03 0 1.926-7.6 3.49-16.999 3.49S229 47.444 229 45.51c0-1.375 3.861-2.56 9.473-3.13zM113.637 56.563a1.803 1.803 0 0 1-.553-.919c-.494-2.151 3.589-4.87 9.111-6.074 5.522-1.204 10.398-.44 10.886 1.711a1.86 1.86 0 0 1-.16 1.197c6.3-.67 10.73-.314 11.06 1.131.493 2.149-8.285 5.893-19.596 8.358-11.311 2.465-20.877 2.726-21.366.575-.348-1.53 4.01-3.865 10.618-5.98z" opacity=".315"/>
    </g>
</svg>
